<?xml version="1.0" encoding="utf-8"?>
<!-- Generator: Adobe Illustrator 24.0.0, SVG Export Plug-In . SVG Version: 6.00 Build 0)  -->
<svg version="1.1" id="Capa_1" xmlns="http://www.w3.org/2000/svg" xmlns:xlink="http://www.w3.org/1999/xlink" x="0px" y="0px"
	 viewBox="0 0 67 59.3" style="enable-background:new 0 0 67 59.3;" xml:space="preserve">
<style type="text/css">
	.st0{fill:#FFFFFF;}
</style>
<g>
	<g>
		<path class="st0" d="M60.9,9.8H6.2c-1.7,0-3-1.3-3-3s1.3-3,3-3h54.7c1.7,0,3,1.3,3,3S62.5,9.8,60.9,9.8z"/>
	</g>
	<g>
		<path class="st0" d="M60.9,32.3H6.2c-1.7,0-3-1.3-3-3s1.3-3,3-3h54.7c1.7,0,3,1.3,3,3S62.5,32.3,60.9,32.3z"/>
	</g>
	<g>
		<path class="st0" d="M60.9,55.5H6.2c-1.7,0-3-1.3-3-3s1.3-3,3-3h54.7c1.7,0,3,1.3,3,3S62.5,55.5,60.9,55.5z"/>
	</g>
</g>
</svg>
