<?xml version="1.0" encoding="utf-8"?>
<!-- Generator: Adobe Illustrator 24.0.0, SVG Export Plug-In . SVG Version: 6.00 Build 0)  -->
<svg version="1.1" id="Capa_1" xmlns="http://www.w3.org/2000/svg" xmlns:xlink="http://www.w3.org/1999/xlink" x="0px" y="0px"
	 viewBox="0 0 100 77.9" style="enable-background:new 0 0 100 77.9;" xml:space="preserve">
<style type="text/css">
	.st0{fill:#FFFFFF;}
</style>
<g>
	<path class="st0" d="M10.1,3.7l32.6,37c1.9,2.1,4.5,3.3,7.3,3.3c2.8,0,5.5-1.2,7.3-3.3l32-36.4c0.3-0.3,0.6-0.5,0.9-0.7
		c-1.4-0.6-2.9-0.9-4.4-0.9H14.2c-1.5,0-2.9,0.3-4.3,0.8C10,3.6,10.1,3.7,10.1,3.7z"/>
	<path class="st0" d="M95.3,7.9c-0.1,0.4-0.3,0.7-0.6,1.1l-32,36.4c-3.2,3.6-7.7,5.7-12.5,5.7c-4.8,0-9.4-2.1-12.5-5.7L4.9,8.3
		C4.8,8.3,4.8,8.2,4.7,8.1c-1,1.7-1.6,3.6-1.6,5.7v50.1C3.1,70,8.1,75,14.2,75h71.7C92,75,97,70,97,63.9V13.8
		C97,11.7,96.3,9.6,95.3,7.9z"/>
</g>
</svg>
