<?xml version="1.0" encoding="utf-8"?>
<!-- Generator: Adobe Illustrator 24.0.0, SVG Export Plug-In . SVG Version: 6.00 Build 0)  -->
<svg version="1.1" id="Capa_1" xmlns="http://www.w3.org/2000/svg" xmlns:xlink="http://www.w3.org/1999/xlink" x="0px" y="0px"
	 viewBox="0 0 68.2 69.3" style="enable-background:new 0 0 68.2 69.3;" xml:space="preserve">
<style type="text/css">
	.st0{fill:#FFFFFF;}
</style>
<g>
	<g>
		<path class="st0" d="M50.8,14.4c-2,0-3.7,1.7-3.7,3.7c0,2,1.7,3.7,3.7,3.7c2,0,3.7-1.7,3.7-3.7C54.5,16,52.9,14.4,50.8,14.4z"/>
		<path class="st0" d="M34.4,19.1c-8.6,0-15.5,7-15.5,15.5c0,8.6,7,15.5,15.5,15.5c8.6,0,15.5-7,15.5-15.5
			C49.9,26.1,42.9,19.1,34.4,19.1z M34.4,44.6c-5.5,0-10-4.5-10-10s4.5-10,10-10c5.5,0,10,4.5,10,10S39.9,44.6,34.4,44.6z"/>
		<path class="st0" d="M46.7,66.2H21.5c-10.5,0-19-8.5-19-19V22.1c0-10.5,8.5-19,19-19h25.2c10.5,0,19,8.5,19,19v25.2
			C65.7,57.7,57.2,66.2,46.7,66.2z M21.5,9c-7.2,0-13,5.8-13,13v25.2c0,7.2,5.8,13,13,13h25.2c7.2,0,13-5.8,13-13V22.1
			c0-7.2-5.8-13-13-13H21.5z"/>
	</g>
</g>
</svg>
