<?xml version="1.0" encoding="utf-8"?>
<!-- Generator: Adobe Illustrator 24.0.0, SVG Export Plug-In . SVG Version: 6.00 Build 0)  -->
<svg version="1.1" id="Capa_1" xmlns="http://www.w3.org/2000/svg" xmlns:xlink="http://www.w3.org/1999/xlink" x="0px" y="0px"
	 viewBox="0 0 100 100" style="enable-background:new 0 0 100 100;" xml:space="preserve">
<style type="text/css">
	.st0{fill-rule:evenodd;clip-rule:evenodd;fill:#FFFFFF;}
</style>
<path class="st0" d="M85.7,64c-4-2.4-9.1-5-13.8-3.1c-3.6,1.5-5.9,7.1-8.2,10c-1.2,1.5-2.6,1.7-4.5,1C45.8,66.4,35.5,57.4,28,45
	c-1.3-1.9-1-3.4,0.5-5.2c2.2-2.6,5.1-5.6,5.7-9.2c0.6-3.6-1.1-7.7-2.5-10.9c-1.9-4.1-4-9.8-8-12.1c-3.7-2.1-8.7-0.9-12,1.8
	c-5.7,4.7-8.5,12-8.4,19.3c0,2.1,0.3,4.1,0.8,6.1c1.2,4.8,3.4,9.3,5.9,13.5c1.9,3.2,3.9,6.3,6.1,9.3c7.2,9.8,16.2,18.3,26.5,24.6
	c5.2,3.2,10.8,6,16.6,7.9c6.5,2.1,12.3,4.4,19.3,3c7.3-1.4,14.6-5.9,17.5-13c0.9-2.1,1.3-4.4,0.8-6.6C95.6,68.9,89.4,66.2,85.7,64z"
	/>
</svg>
