<?xml version="1.0" encoding="utf-8"?>
<!-- Generator: Adobe Illustrator 24.0.0, SVG Export Plug-In . SVG Version: 6.00 Build 0)  -->
<svg version="1.1" id="Capa_1" xmlns="http://www.w3.org/2000/svg" xmlns:xlink="http://www.w3.org/1999/xlink" x="0px" y="0px"
	 viewBox="0 0 303.2 153.2" style="enable-background:new 0 0 303.2 153.2;" xml:space="preserve">
<style type="text/css">
	.st0{fill:#FFFFFF;}
</style>
<g>
	<g>
		<g>
			<g>
				<path class="st0" d="M32.3,33.4c2.3,0,3.6,1.2,3.6,3.6v75.9c0,9.8-2.5,18.3-7.6,25.4c-5.6,8.1-13.2,12.1-22.7,12.1
					c-2.5,0-3.7-1.2-3.7-3.7c0-2.3,1.2-3.6,3.7-3.6c7.3,0,13-3.3,17.3-10c3.7-5.8,5.6-12.5,5.6-20.2V37
					C28.6,34.6,29.8,33.4,32.3,33.4z M31.9,2.9c3.2,0,4.7,1.5,4.7,4.7v0.1c0,3.2-1.5,4.7-4.7,4.7c-2.9,0-4.4-1.5-4.4-4.7V7.6
					C27.5,4.4,29,2.9,31.9,2.9z"/>
				<path class="st0" d="M155.1,99.4c0,2.3-1.2,3.6-3.6,3.6c-2.5,0-3.7-1.2-3.7-3.6V60.6c0-5.6-2.1-10.3-6-14.1
					c-4-3.8-8.8-5.8-14.4-5.8c-5.1,0-9.6,1.6-13.5,5.1c-3.8,3.4-6,7.7-6.7,12.8v1.6v0.3v38.8c0,2.5-1.2,3.7-3.7,3.7
					c-2.3,0-3.6-1.2-3.6-3.7l-0.1-38.8c0-5.6-2.1-10.3-6-14c-4-3.8-8.7-5.8-14.3-5.8c-5.1,0-9.6,1.6-13.6,5.1
					c-3.8,3.4-6,7.7-6.7,12.8v40.7c0,2.5-1.2,3.7-3.6,3.7c-2.5,0-3.7-1.2-3.7-3.7V58.4c0-6.7,2.9-12.5,8.8-17.4
					c5.9-5.1,12.2-7.6,18.8-7.6c10.7,0,18.7,4.7,24,13.9c4.9-8.7,14-13.9,23.9-13.9c7.6,0,14.1,2.6,19.5,7.8
					c5.5,5.2,8.2,11.7,8.2,19.2V99.4z"/>
			</g>
		</g>
		<circle class="st0" cx="55.7" cy="117.2" r="4.5"/>
		<circle class="st0" cx="103.2" cy="117.2" r="4.5"/>
		<circle class="st0" cx="150.7" cy="117.2" r="4.5"/>
	</g>
	<g>
		<path class="st0" d="M193.1,103.9c0,1.2-0.7,1.9-1.9,1.9c-4.3,0-7.9-1.7-10.7-5.1c-2.7-3.3-4-7.1-4-11.5v-28c0-1.3,0.7-2,1.9-2
			c1.3,0,2,0.7,2,2v12.5h11c1.2,0,1.9,0.7,1.9,1.9c0,1.3-0.7,2-1.9,2h-11v11.6c0,3.3,1,6.2,2.9,8.7c2.1,2.7,4.8,4,8,4
			C192.4,101.9,193.1,102.6,193.1,103.9z"/>
		<path class="st0" d="M212,76.5c1.6,0,3.1,0.2,4.5,0.7c6.2,2,10.2,7.6,10.2,14.1c0,1.3-0.7,2-1.9,2h-23.5c0.2,1.1,0.6,2.1,1,3
			c2,3.9,5.2,5.9,9.6,5.9c2,0,3.9-0.6,5.8-1.7c0.4-0.3,0.9-0.4,1.2-0.4c0.9,0,1.8,1.2,1.8,2.2c0,0.6-0.4,1.1-1,1.5
			c-2.4,1.5-5,2.3-7.8,2.3c-4,0-7.5-1.5-10.5-4.3c-2.9-2.9-4.3-6.4-4.3-10.5c0-2.8,0.7-5.3,2.1-7.7C202.2,78.8,206.5,76.5,212,76.5z
			 M201.3,89.3h21.4c-0.7-4.3-3.2-7.2-7.5-8.5c-1.1-0.4-2.2-0.5-3.3-0.5c-1.8,0-3.4,0.4-5,1.2C203.9,83.1,202,85.7,201.3,89.3z"/>
		<path class="st0" d="M235.1,80.6c2.9-2.9,6.4-4.3,10.5-4.3c4.3,0,7.9,1.6,10.8,4.8c0.4,0.4,0.6,0.9,0.6,1.3c0,0.9-1.2,2-2,2
			c-0.5,0-1-0.2-1.4-0.7c-2.1-2.3-4.8-3.5-8-3.5c-3,0-5.6,1.1-7.7,3.2c-2.1,2.1-3.1,4.7-3.1,7.7c0,3,1,5.6,3.1,7.7
			c2.1,2.1,4.8,3.1,7.7,3.1c3.3,0,6-1.2,8.2-3.7c0.4-0.5,1-0.8,1.5-0.8c0.9,0,2,1,2,2c0,0.4-0.2,0.8-0.6,1.3
			c-3,3.4-6.7,5.1-11.1,5.1c-4.2,0-7.7-1.4-10.5-4.2c-2.9-2.9-4.2-6.4-4.2-10.5C230.8,86.9,232.3,83.4,235.1,80.6z"/>
		<path class="st0" d="M290.7,103.7c0,1.2-0.7,1.9-1.9,1.9c-1.3,0-2-0.7-2-1.9v-13c0-3-1.1-5.6-3.2-7.5c-2.1-2-4.7-3.1-7.7-3.1
			c-5.6,0-10.1,4-10.7,9.5v14.1c0,1.3-0.7,2-2,2c-1.2,0-1.9-0.7-1.9-2V61c0-1.3,0.7-2,1.9-2c1.3,0,2,0.7,2,2v19.9
			c2.9-3.1,6.5-4.7,10.7-4.7c3.9,0,7.2,1.2,10,3.8c2.9,2.6,4.4,5.7,4.8,9.6V103.7z"/>
		<path class="st0" d="M298.2,105.2c-1.7,0-2.9-1.2-2.9-2.9c0-1.7,1.2-3,2.9-3c1.7,0,3,1.3,3,3C301.2,104,299.9,105.2,298.2,105.2z"
			/>
	</g>
</g>
</svg>
